{
  "accessors": [
    {
      "bufferView": 2,
      "componentType": 5126,
      "count": 151,
      "max": [
        1.3621821403503418,
        1.5622268915176392,
        0.7006235718727112
      ],
      "min": [
        -1.3621821403503418,
        -1.5622268915176392,
        -0.7006235718727112
      ],
      "type": "VEC3"
    },
    {
      "bufferView": 2,
      "byteOffset": 1812,
      "componentType": 5126,
      "count": 151,
      "max": [
        0.9753192067146301,
        1.0,
        0.9926415085792542
      ],
      "min": [
        -0.9753192067146301,
        -1.0,
        -0.9926415085792542
      ],
      "type": "VEC3"
    },
    {
      "bufferView": 1,
      "componentType": 5126,
      "count": 151,
      "max": [
        1.0,
        1.0
      ],
      "min": [
        0.0,
        0.0
      ],
      "type": "VEC2"
    },
    {
      "bufferView": 0,
      "componentType": 5125,
      "count": 672,
      "type": "SCALAR"
    },
    {
      "bufferView": 2,
      "byteOffset": 3624,
      "componentType": 5126,
      "count": 151,
      "max": [
        1.3621821403503418,
        1.5622268915176392,
        0.7006235718727112
      ],
      "min": [
        -1.3621821403503418,
        -1.5622268915176392,
        -0.7006235718727112
      ],
      "type": "VEC3"
    },
    {
      "bufferView": 2,
      "byteOffset": 5436,
      "componentType": 5126,
      "count": 151,
      "max": [
        0.9753192067146301,
        1.0,
        0.9926415085792542
      ],
      "min": [
        -0.9753192067146301,
        -1.0,
        -0.9926415085792542
      ],
      "type": "VEC3"
    },
    {
      "bufferView": 1,
      "byteOffset": 1208,
      "componentType": 5126,
      "count": 151,
      "max": [
        1.0,
        1.0
      ],
      "min": [
        0.0,
        0.0
      ],
      "type": "VEC2"
    },
    {
      "bufferView": 0,
      "byteOffset": 2688,
      "componentType": 5125,
      "count": 672,
      "type": "SCALAR"
    },
    {
      "bufferView": 2,
      "byteOffset": 7248,
      "componentType": 5126,
      "count": 167,
      "max": [
        6.213802814483643,
        11.7347412109375,
        6.213802814483643
      ],
      "min": [
        -6.213802814483643,
        -7.126338005065918,
        -6.213802814483643
      ],
      "type": "VEC3"
    },
    {
      "bufferView": 2,
      "byteOffset": 9252,
      "componentType": 5126,
      "count": 167,
      "max": [
        0.9756515622138977,
        0.9910220503807068,
        0.9818204641342163
      ],
      "min": [
        -0.9756515622138977,
        -1.0,
        -0.9756515622138977
      ],
      "type": "VEC3"
    },
    {
      "bufferView": 1,
      "byteOffset": 2416,
      "componentType": 5126,
      "count": 167,
      "max": [
        1.0,
        1.0
      ],
      "min": [
        0.0,
        0.0
      ],
      "type": "VEC2"
    },
    {
      "bufferView": 0,
      "byteOffset": 5376,
      "componentType": 5125,
      "count": 672,
      "type": "SCALAR"
    },
    {
      "bufferView": 2,
      "byteOffset": 11256,
      "componentType": 5126,
      "count": 84,
      "max": [
        36.675254821777344,
        66.24601745605469,
        36.675254821777344
      ],
      "min": [
        -36.675254821777344,
        -65.58364868164063,
        -36.675254821777344
      ],
      "type": "VEC3"
    },
    {
      "bufferView": 2,
      "byteOffset": 12264,
      "componentType": 5126,
      "count": 84,
      "max": [
        0.9887621402740479,
        1.0,
        0.9887621402740479
      ],
      "min": [
        -0.9887621402740479,
        0.14917689561843872,
        -0.9887621402740479
      ],
      "type": "VEC3"
    },
    {
      "bufferView": 1,
      "byteOffset": 3752,
      "componentType": 5126,
      "count": 84,
      "max": [
        1.0,
        1.0
      ],
      "min": [
        0.0,
        0.31979382038116455
      ],
      "type": "VEC2"
    },
    {
      "bufferView": 0,
      "byteOffset": 8064,
      "componentType": 5125,
      "count": 330,
      "type": "SCALAR"
    },
    {
      "bufferView": 2,
      "byteOffset": 13272,
      "componentType": 5126,
      "count": 374,
      "max": [
        21.484188079833984,
        3.6874616146087646,
        21.327543258666992
      ],
      "min": [
        -21.484188079833984,
        -3.6874616146087646,
        -21.327543258666992
      ],
      "type": "VEC3"
    },
    {
      "bufferView": 2,
      "byteOffset": 17760,
      "componentType": 5126,
      "count": 374,
      "max": [
        1.0,
        1.0,
        0.9967714548110962
      ],
      "min": [
        -1.0,
        -1.0,
        -0.9967714548110962
      ],
      "type": "VEC3"
    },
    {
      "bufferView": 1,
      "byteOffset": 4424,
      "componentType": 5126,
      "count": 374,
      "max": [
        1.0,
        1.0
      ],
      "min": [
        0.0,
        0.0
      ],
      "type": "VEC2"
    },
    {
      "bufferView": 0,
      "byteOffset": 9384,
      "componentType": 5125,
      "count": 1560,
      "type": "SCALAR"
    },
    {
      "bufferView": 2,
      "byteOffset": 22248,
      "componentType": 5126,
      "count": 1344,
      "max": [
        69.8641128540039,
        -28.2407283782959,
        69.8641128540039
      ],
      "min": [
        -69.8641128540039,
        -30.975034713745117,
        -69.8641128540039
      ],
      "type": "VEC3"
    },
    {
      "bufferView": 2,
      "byteOffset": 38376,
      "componentType": 5126,
      "count": 1344,
      "max": [
        0.9705389738082886,
        0.9998560547828674,
        0.970538854598999
      ],
      "min": [
        -0.9705389738082886,
        -0.9998560547828674,
        -0.970538854598999
      ],
      "type": "VEC3"
    },
    {
      "bufferView": 1,
      "byteOffset": 7416,
      "componentType": 5126,
      "count": 1344,
      "max": [
        1.0,
        1.0
      ],
      "min": [
        0.0,
        0.0
      ],
      "type": "VEC2"
    },
    {
      "bufferView": 0,
      "byteOffset": 15624,
      "componentType": 5125,
      "count": 5376,
      "type": "SCALAR"
    },
    {
      "bufferView": 2,
      "byteOffset": 54504,
      "componentType": 5126,
      "count": 369,
      "max": [
        24.784038543701172,
        24.784038543701172,
        24.784038543701172
      ],
      "min": [
        -24.784038543701172,
        0.0,
        -24.784038543701172
      ],
      "type": "VEC3"
    },
    {
      "bufferView": 2,
      "byteOffset": 58932,
      "componentType": 5126,
      "count": 369,
      "max": [
        0.9957745671272278,
        1.0,
        0.9957745671272278
      ],
      "min": [
        -0.9957745671272278,
        0.08711874485015869,
        -0.9957745671272278
      ],
      "type": "VEC3"
    },
    {
      "bufferView": 1,
      "byteOffset": 18168,
      "componentType": 5126,
      "count": 369,
      "max": [
        1.0,
        0.5
      ],
      "min": [
        0.0,
        0.0
      ],
      "type": "VEC2"
    },
    {
      "bufferView": 0,
      "byteOffset": 37128,
      "componentType": 5125,
      "count": 1836,
      "type": "SCALAR"
    },
    {
      "bufferView": 2,
      "byteOffset": 63360,
      "componentType": 5126,
      "count": 374,
      "max": [
        30.99559783935547,
        5.319962978363037,
        30.76960563659668
      ],
      "min": [
        -30.99559783935547,
        -5.319962978363037,
        -30.76960563659668
      ],
      "type": "VEC3"
    },
    {
      "bufferView": 2,
      "byteOffset": 67848,
      "componentType": 5126,
      "count": 374,
      "max": [
        1.0,
        1.0,
        0.9967714548110962
      ],
      "min": [
        -1.0,
        -1.0,
        -0.9967714548110962
      ],
      "type": "VEC3"
    },
    {
      "bufferView": 1,
      "byteOffset": 21120,
      "componentType": 5126,
      "count": 374,
      "max": [
        1.0,
        1.0
      ],
      "min": [
        0.0,
        0.0
      ],
      "type": "VEC2"
    },
    {
      "bufferView": 0,
      "byteOffset": 44472,
      "componentType": 5125,
      "count": 1560,
      "type": "SCALAR"
    },
    {
      "bufferView": 2,
      "byteOffset": 72336,
      "componentType": 5126,
      "count": 1195,
      "max": [
        100.0,
        23.240680694580078,
        100.0
      ],
      "min": [
        -100.0,
        -23.240680694580078,
        -100.0
      ],
      "type": "VEC3"
    },
    {
      "bufferView": 2,
      "byteOffset": 86676,
      "componentType": 5126,
      "count": 1195,
      "max": [
        1.0,
        1.0,
        1.0
      ],
      "min": [
        -1.0,
        -1.0,
        -1.0
      ],
      "type": "VEC3"
    },
    {
      "bufferView": 1,
      "byteOffset": 24112,
      "componentType": 5126,
      "count": 1195,
      "max": [
        1.0,
        1.0
      ],
      "min": [
        0.0,
        0.0
      ],
      "type": "VEC2"
    },
    {
      "bufferView": 0,
      "byteOffset": 50712,
      "componentType": 5125,
      "count": 4368,
      "type": "SCALAR"
    },
    {
      "bufferView": 3,
      "componentType": 5126,
      "count": 91,
      "max": [
        3.0
      ],
      "min": [
        0.0
      ],
      "type": "SCALAR"
    },
    {
      "bufferView": 4,
      "componentType": 5126,
      "count": 91,
      "max": [
        -0.0035080306697636843,
        203.15475463867188,
        2.636462450027466
      ],
      "min": [
        -0.0035080306697636843,
        193.15475463867188,
        2.636462450027466
      ],
      "type": "VEC3"
    },
    {
      "bufferView": 3,
      "byteOffset": 364,
      "componentType": 5126,
      "count": 91,
      "max": [
        3.0
      ],
      "min": [
        0.0
      ],
      "type": "SCALAR"
    },
    {
      "bufferView": 4,
      "byteOffset": 1092,
      "componentType": 5126,
      "count": 91,
      "max": [
        0.0035080306697636843,
        76.84524536132813,
        -2.636462450027466
      ],
      "min": [
        0.0035080306697636843,
        66.84524536132813,
        -2.636462450027466
      ],
      "type": "VEC3"
    },
    {
      "bufferView": 3,
      "byteOffset": 728,
      "componentType": 5126,
      "count": 91,
      "max": [
        3.0
      ],
      "min": [
        0.0
      ],
      "type": "SCALAR"
    },
    {
      "bufferView": 4,
      "byteOffset": 2184,
      "componentType": 5126,
      "count": 91,
      "max": [
        0.0035080306697636843,
        143.2532501220703,
        -2.636462450027466
      ],
      "min": [
        0.0035080306697636843,
        133.2532501220703,
        -2.636462450027466
      ],
      "type": "VEC3"
    },
    {
      "bufferView": 3,
      "byteOffset": 1092,
      "componentType": 5126,
      "count": 91,
      "max": [
        3.0
      ],
      "min": [
        0.0
      ],
      "type": "SCALAR"
    },
    {
      "bufferView": 4,
      "byteOffset": 3276,
      "componentType": 5126,
      "count": 91,
      "max": [
        0.0035080306697636843,
        183.29916381835938,
        -2.636462450027466
      ],
      "min": [
        0.0035080306697636843,
        173.29916381835938,
        -2.636462450027466
      ],
      "type": "VEC3"
    },
    {
      "bufferView": 3,
      "byteOffset": 1456,
      "componentType": 5126,
      "count": 91,
      "max": [
        3.0
      ],
      "min": [
        0.0
      ],
      "type": "SCALAR"
    },
    {
      "bufferView": 5,
      "componentType": 5126,
      "count": 91,
      "max": [
        0.0,
        0.0,
        0.0,
        0.9999619126319885
      ],
      "min": [
        0.0,
        -0.9999904632568359,
        0.0,
        -1.0
      ],
      "type": "VEC4"
    },
    {
      "bufferView": 3,
      "byteOffset": 1820,
      "componentType": 5126,
      "count": 91,
      "max": [
        3.0
      ],
      "min": [
        0.0
      ],
      "type": "SCALAR"
    },
    {
      "bufferView": 4,
      "byteOffset": 4368,
      "componentType": 5126,
      "count": 91,
      "max": [
        0.0035080306697636843,
        192.03477478027344,
        -2.636462450027466
      ],
      "min": [
        0.0035080306697636843,
        182.03477478027344,
        -2.636462450027466
      ],
      "type": "VEC3"
    },
    {
      "bufferView": 3,
      "byteOffset": 2184,
      "componentType": 5126,
      "count": 91,
      "max": [
        3.0
      ],
      "min": [
        0.0
      ],
      "type": "SCALAR"
    },
    {
      "bufferView": 4,
      "byteOffset": 5460,
      "componentType": 5126,
      "count": 91,
      "max": [
        0.0035080306697636843,
        188.8335418701172,
        -2.636462450027466
      ],
      "min": [
        0.0035080306697636843,
        178.8335418701172,
        -2.636462450027466
      ],
      "type": "VEC3"
    },
    {
      "bufferView": 3,
      "byteOffset": 2548,
      "componentType": 5126,
      "count": 91,
      "max": [
        3.0
      ],
      "min": [
        0.0
      ],
      "type": "SCALAR"
    },
    {
      "bufferView": 4,
      "byteOffset": 6552,
      "componentType": 5126,
      "count": 91,
      "max": [
        0.0035080306697636843,
        166.61351013183594,
        -2.636462450027466
      ],
      "min": [
        0.0035080306697636843,
        156.61351013183594,
        -2.636462450027466
      ],
      "type": "VEC3"
    }
  ],
  "animations": [
    {
      "channels": [
        {
          "sampler": 0,
          "target": {
            "node": 3,
            "path": "translation"
          }
        },
        {
          "sampler": 1,
          "target": {
            "node": 10,
            "path": "translation"
          }
        },
        {
          "sampler": 2,
          "target": {
            "node": 12,
            "path": "translation"
          }
        },
        {
          "sampler": 3,
          "target": {
            "node": 14,
            "path": "translation"
          }
        },
        {
          "sampler": 4,
          "target": {
            "node": 14,
            "path": "rotation"
          }
        },
        {
          "sampler": 5,
          "target": {
            "node": 16,
            "path": "translation"
          }
        },
        {
          "sampler": 6,
          "target": {
            "node": 18,
            "path": "translation"
          }
        },
        {
          "sampler": 7,
          "target": {
            "node": 20,
            "path": "translation"
          }
        }
      ],
      "name": "GltfAnimation 0",
      "samplers": [
        {
          "input": 36,
          "interpolation": "LINEAR",
          "output": 37
        },
        {
          "input": 38,
          "interpolation": "LINEAR",
          "output": 39
        },
        {
          "input": 40,
          "interpolation": "LINEAR",
          "output": 41
        },
        {
          "input": 42,
          "interpolation": "LINEAR",
          "output": 43
        },
        {
          "input": 44,
          "interpolation": "LINEAR",
          "output": 45
        },
        {
          "input": 46,
          "interpolation": "LINEAR",
          "output": 47
        },
        {
          "input": 48,
          "interpolation": "LINEAR",
          "output": 49
        },
        {
          "input": 50,
          "interpolation": "LINEAR",
          "output": 51
        }
      ]
    }
  ],
  "asset": {
    "extras": {
      "author": "Fede_Garcia (https://sketchfab.com/fedegarcia)",
      "license": "CC-BY-4.0 (http://creativecommons.org/licenses/by/4.0/)",
      "source": "https://sketchfab.com/3d-models/plato-volador-amina-f7fdac6a3aed43f1bb8a40ce9c74ad6c",
      "title": "plato_volador_amina"
    },
    "generator": "Sketchfab-12.66.0",
    "version": "2.0"
  },
  "bufferViews": [
    {
      "buffer": 0,
      "byteLength": 68184,
      "name": "floatBufferViews",
      "target": 34963
    },
    {
      "buffer": 0,
      "byteLength": 33672,
      "byteOffset": 68184,
      "byteStride": 8,
      "name": "floatBufferViews",
      "target": 34962
    },
    {
      "buffer": 0,
      "byteLength": 101016,
      "byteOffset": 101856,
      "byteStride": 12,
      "name": "floatBufferViews",
      "target": 34962
    },
    {
      "buffer": 0,
      "byteLength": 2912,
      "byteOffset": 202872,
      "name": "floatBufferViews"
    },
    {
      "buffer": 0,
      "byteLength": 7644,
      "byteOffset": 205784,
      "byteStride": 12,
      "name": "floatBufferViews"
    },
    {
      "buffer": 0,
      "byteLength": 1456,
      "byteOffset": 213428,
      "byteStride": 16,
      "name": "floatBufferViews"
    }
  ],
  "buffers": [
    {
      "byteLength": 214884,
      "uri": "scene.bin"
    }
  ],
  "extensionsUsed": [
    "KHR_materials_transmission"
  ],
  "materials": [
    {
      "doubleSided": true,
      "name": "negro",
      "pbrMetallicRoughness": {
        "baseColorFactor": [
          0.26,
          0.26,
          0.26,
          1.0
        ]
      }
    },
    {
      "doubleSided": true,
      "name": "verdolaga",
      "pbrMetallicRoughness": {
        "baseColorFactor": [
          0.4789200000000002,
          0.72,
          0.3672000000000001,
          1.0
        ]
      }
    },
    {
      "alphaMode": "BLEND",
      "doubleSided": true,
      "extensions": {
        "KHR_materials_transmission": {
          "transmissionFactor": 0.94
        }
      },
      "name": "VERDE_Glass",
      "pbrMetallicRoughness": {
        "baseColorFactor": [
          1.0,
          1.0,
          1.0,
          0.25
        ]
      }
    },
    {
      "doubleSided": true,
      "name": "Grey_Metal",
      "pbrMetallicRoughness": {
        "baseColorFactor": [
          0.631068,
          0.631068,
          0.631068,
          1.0
        ],
        "roughnessFactor": 0.16
      }
    },
    {
      "doubleSided": true,
      "emissiveFactor": [
        1.0,
        1.0,
        1.0
      ],
      "name": "Mat.3"
    },
    {
      "alphaMode": "BLEND",
      "doubleSided": true,
      "extensions": {
        "KHR_materials_transmission": {
          "transmissionFactor": 0.8037241117233517
        }
      },
      "name": "TRANSP_Glass",
      "pbrMetallicRoughness": {
        "baseColorFactor": [
          1.0,
          1.0,
          1.0,
          0.25
        ]
      }
    }
  ],
  "meshes": [
    {
      "name": "Object_0",
      "primitives": [
        {
          "attributes": {
            "NORMAL": 1,
            "POSITION": 0,
            "TEXCOORD_0": 2
          },
          "indices": 3,
          "material": 0,
          "mode": 4
        }
      ]
    },
    {
      "name": "Object_1",
      "primitives": [
        {
          "attributes": {
            "NORMAL": 5,
            "POSITION": 4,
            "TEXCOORD_0": 6
          },
          "indices": 7,
          "material": 0,
          "mode": 4
        }
      ]
    },
    {
      "name": "Object_2",
      "primitives": [
        {
          "attributes": {
            "NORMAL": 9,
            "POSITION": 8,
            "TEXCOORD_0": 10
          },
          "indices": 11,
          "material": 1,
          "mode": 4
        }
      ]
    },
    {
      "name": "Object_3",
      "primitives": [
        {
          "attributes": {
            "NORMAL": 13,
            "POSITION": 12,
            "TEXCOORD_0": 14
          },
          "indices": 15,
          "material": 2,
          "mode": 4
        }
      ]
    },
    {
      "name": "Object_4",
      "primitives": [
        {
          "attributes": {
            "NORMAL": 17,
            "POSITION": 16,
            "TEXCOORD_0": 18
          },
          "indices": 19,
          "material": 3,
          "mode": 4
        }
      ]
    },
    {
      "name": "Object_5",
      "primitives": [
        {
          "attributes": {
            "NORMAL": 21,
            "POSITION": 20,
            "TEXCOORD_0": 22
          },
          "indices": 23,
          "material": 4,
          "mode": 4
        }
      ]
    },
    {
      "name": "Object_6",
      "primitives": [
        {
          "attributes": {
            "NORMAL": 25,
            "POSITION": 24,
            "TEXCOORD_0": 26
          },
          "indices": 27,
          "material": 5,
          "mode": 4
        }
      ]
    },
    {
      "name": "Object_7",
      "primitives": [
        {
          "attributes": {
            "NORMAL": 29,
            "POSITION": 28,
            "TEXCOORD_0": 30
          },
          "indices": 31,
          "material": 3,
          "mode": 4
        }
      ]
    },
    {
      "name": "Object_8",
      "primitives": [
        {
          "attributes": {
            "NORMAL": 33,
            "POSITION": 32,
            "TEXCOORD_0": 34
          },
          "indices": 35,
          "material": 3,
          "mode": 4
        }
      ]
    }
  ],
  "nodes": [
    {
      "children": [
        1
      ],
      "matrix": [
        1.0,
        0.0,
        0.0,
        0.0,
        0.0,
        2.220446049250313e-16,
        -1.0,
        0.0,
        0.0,
        1.0,
        2.220446049250313e-16,
        0.0,
        0.0,
        0.0,
        0.0,
        1.0
      ],
      "name": "Sketchfab_model"
    },
    {
      "children": [
        2
      ],
      "name": "root"
    },
    {
      "children": [
        3,
        10,
        12,
        14,
        16,
        18,
        20
      ],
      "matrix": [
        1.0,
        0.0,
        0.0,
        0.0,
        0.0,
        2.220446049250313e-16,
        1.0,
        0.0,
        0.0,
        -1.0,
        2.220446049250313e-16,
        0.0,
        0.0,
        0.0,
        0.0,
        1.0
      ],
      "name": "GLTF_SceneRootNode"
    },
    {
      "children": [
        4,
        6,
        8
      ],
      "name": "Null_0",
      "rotation": [
        0.0,
        0.0,
        0.0,
        -1.0
      ],
      "translation": [
        -0.0035080306697636843,
        193.15475463867188,
        2.636462450027466
      ]
    },
    {
      "children": [
        5
      ],
      "matrix": [
        0.2642894182196198,
        -0.9602743068781847,
        -0.08957878636572714,
        0.0,
        -0.9075773562075762,
        -0.27905310636160685,
        0.31373987048063234,
        0.0,
        -0.3262735752652996,
        -0.0016184497395352881,
        -0.9452739998032524,
        0.0,
        1.9450840950012207,
        0.36773478984832764,
        1.600858449935913,
        1.0
      ],
      "name": "Sphere.3_1"
    },
    {
      "mesh": 0,
      "name": "Object_5"
    },
    {
      "children": [
        7
      ],
      "matrix": [
        0.22631806213245287,
        0.9504143137968452,
        0.21329033471464004,
        0.0,
        0.8690069349324056,
        -0.29592663732533353,
        0.396553114173507,
        0.0,
        0.440008047417314,
        0.09560364768873872,
        -0.8928901728413243,
        0.0,
        -1.9494397640228271,
        0.45125502347946167,
        1.6726804971694946,
        1.0
      ],
      "name": "Sphere.2_2"
    },
    {
      "mesh": 1,
      "name": "Object_7"
    },
    {
      "children": [
        9
      ],
      "matrix": [
        1.0,
        -1.0605752485126246e-16,
        1.8369702245630443e-16,
        0.0,
        -1.8369702245630443e-16,
        -0.8660254016890685,
        0.5000000036292871,
        0.0,
        1.0605752485126246e-16,
        -0.5000000036292871,
        -0.8660254016890685,
        0.0,
        0.0043557132594287395,
        -0.8189898133277893,
        -3.273538827896118,
        1.0
      ],
      "name": "Sphere.1_3"
    },
    {
      "mesh": 2,
      "name": "Object_9"
    },
    {
      "children": [
        11
      ],
      "name": "Boole_4",
      "rotation": [
        0.0,
        0.0,
        0.0,
        -1.0
      ],
      "translation": [
        0.0035080306697636843,
        66.84524536132813,
        -2.636462450027466
      ]
    },
    {
      "mesh": 3,
      "name": "Object_11"
    },
    {
      "children": [
        13
      ],
      "name": "Tube.1_5",
      "rotation": [
        0.0,
        0.0,
        0.0,
        -1.0
      ],
      "translation": [
        0.0035080306697636843,
        133.2532501220703,
        -2.636462450027466
      ]
    },
    {
      "mesh": 4,
      "name": "Object_13"
    },
    {
      "children": [
        15
      ],
      "name": "Cloner_6",
      "rotation": [
        0.0,
        -0.008726535364985466,
        0.0,
        0.9999619126319885
      ],
      "translation": [
        0.0035080306697636843,
        173.29916381835938,
        -2.636462450027466
      ]
    },
    {
      "mesh": 5,
      "name": "Object_15"
    },
    {
      "children": [
        17
      ],
      "name": "Sphere_7",
      "rotation": [
        0.0,
        0.0,
        0.0,
        -1.0
      ],
      "translation": [
        0.0035080306697636843,
        182.03477478027344,
        -2.636462450027466
      ]
    },
    {
      "mesh": 6,
      "name": "Object_17"
    },
    {
      "children": [
        19
      ],
      "name": "Tube_8",
      "rotation": [
        0.0,
        0.0,
        0.0,
        -1.0
      ],
      "translation": [
        0.0035080306697636843,
        178.8335418701172,
        -2.636462450027466
      ]
    },
    {
      "mesh": 7,
      "name": "Object_19"
    },
    {
      "children": [
        21
      ],
      "name": "Oil Tank_9",
      "rotation": [
        0.0,
        0.0,
        0.0,
        -1.0
      ],
      "translation": [
        0.0035080306697636843,
        156.61351013183594,
        -2.636462450027466
      ]
    },
    {
      "mesh": 8,
      "name": "Object_21"
    }
  ],
  "scene": 0,
  "scenes": [
    {
      "name": "Sketchfab_Scene",
      "nodes": [
        0
      ]
    }
  ]
}
